# xmcd
#
# Track frame offsets:
#	150
#	16690
#	30925
#	45118
#	66946
#	81223
#	92664
#	106279
#	118389
#	131440
#	148148
#	160620
#	172124
#
# Disc length: 2488 seconds
#
# Revision: 0
# Processed by: cddbd v1.5.2PL0 Copyright (c) Steve Scherf et al.
# Submitted via: audiograbber 1.83.01
#
DISCID=9f09b60d
DTITLE=Roger Whittaker - The Best Of
DYEAR=2004
DGENRE=Country
TTITLE0=The Last Farewell
TTITLE1=River Lady
TTITLE2=Flap Flap
TTITLE3=Indian Lady
TTITLE4=Durham Town
TTITLE5=I Don't Believe In If Anymore
TTITLE6=The First Hello, The Last Goodbye
TTITLE7=Swaggy
TTITLE8=Everybody Is Looking For An Answer
TTITLE9=Streets Of London
TTITLE10=If I Were A Rich Man
TTITLE11=Chang-Alip
TTITLE12=Every Time Is Going To Be The Last Time
EXTD=
EXTT0=
EXTT1=
EXTT2=
EXTT3=
EXTT4=
EXTT5=
EXTT6=
EXTT7=
EXTT8=
EXTT9=
EXTT10=
EXTT11=
EXTT12=
PLAYORDER=
